<svg width="72" height="72" viewBox="0 0 72 72" fill="none" xmlns="http://www.w3.org/2000/svg">
<path fill-rule="evenodd" clip-rule="evenodd" d="M1.75736 61.7574C-0.585786 64.1005 -0.585786 67.8995 1.75736 70.2426C4.1005 72.5858 7.8995 72.5858 10.2426 70.2426L36 44.4853L61.7574 70.2426C64.1005 72.5858 67.8995 72.5858 70.2426 70.2426C72.5858 67.8995 72.5858 64.1005 70.2426 61.7574L44.4853 36L70.2426 10.2426C72.5858 7.89949 72.5858 4.1005 70.2426 1.75735C67.8995 -0.585785 64.1005 -0.585785 61.7574 1.75735L36 27.5147L10.2426 1.75736C7.8995 -0.585786 4.1005 -0.585786 1.75736 1.75736C-0.585786 4.1005 -0.585786 7.8995 1.75736 10.2426L27.5147 36L1.75736 61.7574Z" fill="#1B789F"/>
</svg>
