<svg width="44" height="44" viewBox="0 0 44 44" fill="none" xmlns="http://www.w3.org/2000/svg">
<path fill-rule="evenodd" clip-rule="evenodd" d="M11.1213 6.87868C9.94975 5.70711 8.05025 5.70711 6.87868 6.87868C5.70711 8.05025 5.70711 9.94975 6.87868 11.1213L17.7574 22L6.87868 32.8787C5.70711 34.0503 5.70711 35.9497 6.87868 37.1213C8.05025 38.2929 9.94975 38.2929 11.1213 37.1213L22 26.2426L32.8787 37.1213C34.0503 38.2929 35.9497 38.2929 37.1213 37.1213C38.2929 35.9497 38.2929 34.0503 37.1213 32.8787L26.2426 22L37.1213 11.1213C38.2929 9.94975 38.2929 8.05025 37.1213 6.87868C35.9497 5.70711 34.0503 5.70711 32.8787 6.87868L22 17.7574L11.1213 6.87868Z" fill="#1B789F"/>
</svg>
